<svg width="21" height="22" viewBox="0 0 21 22" fill="none" xmlns="http://www.w3.org/2000/svg">
<path d="M10.2056 12.4339C3.62446 12.4339 0 15.5473 0 21.2006C0 21.6421 0.357855 22 0.799389 22H19.6118C20.0533 22 20.4112 21.6421 20.4112 21.2006C20.4112 15.5476 16.7868 12.4339 10.2056 12.4339ZM1.62787 20.4012C1.9423 16.1743 4.8241 14.0327 10.2056 14.0327C15.5871 14.0327 18.469 16.1743 18.7837 20.4012H1.62787Z" fill="#15063F"/>
<path d="M10.2056 0.0966187C7.1826 0.0966187 4.90302 2.42206 4.90302 5.5056C4.90302 8.67946 7.28176 11.2612 10.2056 11.2612C13.1295 11.2612 15.5083 8.67946 15.5083 5.50586C15.5083 2.42206 13.2287 0.0966187 10.2056 0.0966187ZM10.2056 9.66272C8.1632 9.66272 6.50179 7.79798 6.50179 5.50586C6.50179 3.29794 8.05954 1.6954 10.2056 1.6954C12.3174 1.6954 13.9095 3.33336 13.9095 5.50586C13.9095 7.79798 12.2481 9.66272 10.2056 9.66272Z" fill="#15063F"/>
</svg>
