<svg width="22" height="22" viewBox="0 0 22 22" fill="none" xmlns="http://www.w3.org/2000/svg">
<path d="M0.5 9.68833C0.5 4.62247 4.62247 0.5 9.68833 0.5C14.7545 0.5 18.8767 4.62246 18.8767 9.68833C18.8767 14.7545 14.7545 18.8767 9.68833 18.8767C4.62246 18.8767 0.5 14.7545 0.5 9.68833ZM1.28862 9.68837C1.28862 14.3204 5.05632 18.0881 9.68833 18.0881C14.3203 18.0881 18.088 14.3203 18.088 9.68833C18.088 5.05632 14.3203 1.28862 9.68833 1.28862C5.05632 1.28862 1.28862 5.05637 1.28862 9.68837Z" fill="#15063F" stroke="black"/>
<path d="M21.3845 20.827L21.3846 20.8272C21.5385 20.9809 21.5385 21.2305 21.3846 21.3843L21.3845 21.3844C21.3072 21.4617 21.2071 21.5 21.1057 21.5C21.0042 21.5 20.9043 21.4617 20.827 21.3845L15.6996 16.2571L15.6995 16.2569C15.5456 16.1032 15.5456 15.8536 15.6995 15.6998L15.6996 15.6996C15.8537 15.5455 16.103 15.5455 16.2571 15.6996L21.3845 20.827Z" fill="#15063F" stroke="black"/>
</svg>
