<svg width="17" height="22" viewBox="0 0 17 22" fill="none" xmlns="http://www.w3.org/2000/svg">
<path d="M15.5 6.5H0.750018C0.335757 6.5 0 6.83576 0 7.25002V19.75C0 20.9908 1.00951 22 2.25001 22H14C15.2408 22 16.25 20.9908 16.25 19.75V7.24998C16.25 6.83576 15.9142 6.5 15.5 6.5ZM14.75 19.7499C14.75 20.1634 14.4135 20.5 14 20.5H2.25001C1.83652 20.5 1.49999 20.1635 1.49999 19.7499V7.99999H14.75V19.7499Z" fill="#15063F"/>
<path d="M8.24998 0C5.76875 0 3.75 2.01875 3.75 4.49998V10.75C3.75 11.1642 4.08576 11.5 4.50002 11.5C4.91428 11.5 5.25004 11.1642 5.25004 10.75V4.49998C5.25004 2.84573 6.59577 1.49999 8.25002 1.49999C9.90427 1.49999 11.25 2.84573 11.25 4.49998V10.75C11.25 11.1642 11.5858 11.5 12 11.5C12.4143 11.5 12.75 11.1642 12.75 10.75V4.49998C12.75 2.01875 10.7312 0 8.24998 0Z" fill="#15063F"/>
</svg>
